<?xml version="1.0" standalone="no"?>
<!DOCTYPE svg PUBLIC "-//W3C//DTD SVG 20010904//EN"
 "http://www.w3.org/TR/2001/REC-SVG-20010904/DTD/svg10.dtd">
<svg version="1.0" xmlns="http://www.w3.org/2000/svg"
 width="940.000000pt" height="940.000000pt" viewBox="0 0 940.000000 940.000000"
 preserveAspectRatio="xMidYMid meet">
<metadata>
Created by potrace 1.11, written by Peter Selinger 2001-2013
</metadata>
<g transform="translate(0.000000,940.000000) scale(0.100000,-0.100000)"
fill="#000000" stroke="none">
<path d="M6857 8224 c-1 -1 -36 -5 -77 -8 -41 -4 -82 -9 -90 -11 -8 -2 -33 -6
-55 -10 -307 -44 -690 -229 -992 -478 -112 -91 -288 -290 -380 -427 -324 -484
-405 -1094 -221 -1653 147 -449 460 -810 908 -1050 182 -97 475 -202 648 -232
18 -3 63 -12 100 -19 64 -14 94 -18 207 -31 28 -3 61 -8 75 -11 14 -2 35 -6
46 -8 12 -3 37 -7 55 -10 54 -8 205 -54 269 -81 235 -99 401 -251 492 -452 50
-111 69 -204 74 -358 4 -150 -6 -219 -48 -325 -88 -224 -273 -403 -495 -482
-62 -22 -66 -22 -161 -39 -101 -18 -338 -5 -482 25 -221 48 -453 196 -631 405
l-46 54 -359 -263 c-197 -145 -426 -314 -509 -375 -82 -61 -181 -133 -218
-159 -38 -27 -71 -55 -74 -62 -7 -18 221 -242 356 -350 532 -429 1150 -648
1831 -648 172 0 288 11 456 44 766 150 1415 682 1698 1392 58 146 98 286 131
457 35 183 39 486 10 721 -27 215 -113 500 -208 685 -354 687 -1035 1101
-1912 1160 -171 12 -351 46 -482 91 -67 23 -98 38 -200 93 -14 7 -58 46 -98
85 -118 117 -164 244 -152 424 11 158 62 277 163 378 172 172 456 219 734 122
147 -52 296 -139 400 -235 l55 -51 240 175 c379 275 538 391 673 491 70 51
144 104 165 118 32 21 36 27 27 44 -17 32 -271 283 -353 350 -368 296 -782
463 -1255 506 -71 6 -309 13 -315 8z m318 -188 c182 -18 285 -38 428 -82 90
-29 275 -102 295 -117 7 -6 34 -20 60 -32 140 -65 354 -221 503 -366 l68 -66
-102 -74 c-56 -40 -114 -82 -128 -93 -14 -12 -36 -28 -49 -36 -20 -13 -78 -56
-105 -78 -5 -4 -32 -23 -60 -42 -27 -19 -55 -39 -61 -45 -10 -9 -97 -72 -257
-187 -29 -21 -57 -42 -64 -48 -9 -7 -39 9 -108 55 -293 199 -605 266 -885 190
-141 -38 -188 -61 -291 -139 -77 -59 -149 -147 -195 -238 -19 -38 -32 -68 -30
-68 3 0 -2 -16 -10 -35 -8 -19 -12 -35 -9 -35 2 0 0 -11 -5 -25 -36 -96 -33
-334 6 -425 4 -8 8 -24 9 -36 3 -22 49 -109 71 -135 8 -8 14 -19 14 -23 0 -16
112 -129 153 -154 15 -9 27 -20 27 -24 0 -4 7 -8 15 -8 8 0 15 -4 15 -10 0 -5
6 -10 14 -10 8 0 16 -4 18 -8 4 -11 163 -86 175 -83 2 1 20 -6 40 -14 21 -8
77 -24 125 -34 104 -25 132 -30 228 -46 33 -5 118 -14 210 -21 127 -10 208
-19 260 -29 14 -2 39 -7 55 -10 17 -2 45 -9 63 -14 17 -5 32 -8 32 -5 0 3 8 0
18 -5 11 -6 32 -13 48 -16 37 -8 43 -10 77 -23 16 -7 34 -12 42 -12 8 0 17 -5
20 -10 4 -6 12 -10 18 -9 13 2 26 -2 94 -33 75 -32 98 -41 106 -40 4 1 7 -2 7
-7 0 -8 37 -24 53 -22 4 1 7 -3 7 -9 0 -5 6 -10 13 -10 6 0 23 -9 37 -20 14
-11 31 -20 38 -20 7 0 18 -5 25 -10 7 -6 44 -32 83 -58 191 -126 383 -314 491
-480 21 -31 40 -59 43 -62 14 -14 150 -279 150 -292 0 -3 8 -23 17 -44 9 -22
18 -43 20 -49 1 -5 14 -48 28 -95 29 -93 44 -161 51 -230 3 -25 7 -52 10 -60
24 -68 23 -510 -1 -640 -2 -14 -6 -41 -9 -60 -4 -32 -16 -88 -29 -146 -14 -58
-79 -239 -116 -321 -112 -248 -235 -426 -426 -618 -115 -115 -177 -168 -267
-230 -34 -25 -67 -48 -73 -53 -5 -4 -26 -17 -45 -28 -19 -10 -37 -21 -40 -24
-17 -17 -231 -123 -323 -159 -66 -26 -217 -77 -259 -87 -10 -2 -28 -6 -40 -9
-24 -6 -120 -23 -173 -31 -161 -24 -486 -23 -675 1 -119 15 -256 41 -330 62
-110 31 -275 86 -285 94 -5 5 -15 9 -23 9 -16 0 -308 142 -388 188 -28 17 -74
46 -103 66 -28 20 -51 33 -51 29 0 -5 -4 -3 -8 3 -4 6 -32 29 -62 51 -30 22
-65 49 -77 59 -12 11 -40 35 -63 54 -23 19 -52 43 -64 55 -86 77 -106 97 -106
105 0 5 53 47 118 94 159 116 148 108 232 170 41 31 117 86 168 123 51 38 99
73 105 78 7 6 30 23 52 39 22 17 43 35 47 40 5 7 8 7 8 1 0 -6 3 -6 8 0 6 10
92 73 119 88 6 4 33 -14 61 -40 131 -126 268 -218 412 -278 44 -18 53 -21 88
-29 9 -3 17 -5 17 -6 0 -1 8 -3 17 -5 9 -2 32 -8 50 -13 18 -6 58 -15 88 -21
30 -6 69 -13 85 -17 17 -3 102 -7 190 -9 169 -4 276 11 405 56 30 11 60 21 65
22 27 8 118 61 183 106 98 70 188 163 256 266 67 99 104 184 137 315 33 132
33 351 0 485 -35 138 -76 255 -90 255 -4 0 -8 6 -8 13 0 18 -94 157 -106 157
-6 0 -8 2 -5 5 7 8 -85 105 -100 105 -6 0 -12 4 -12 10 0 10 -143 120 -155
120 -4 0 -20 9 -36 21 -16 11 -29 17 -29 13 0 -4 -8 -1 -17 7 -47 39 -280 118
-393 134 -14 2 -25 5 -25 6 0 1 -9 3 -20 5 -11 2 -31 5 -45 8 -37 6 -109 17
-155 22 -87 11 -101 13 -139 19 -21 4 -48 9 -60 11 -11 3 -32 7 -46 10 -14 3
-43 10 -65 16 -22 5 -49 12 -60 15 -30 6 -37 9 -68 21 -16 7 -35 12 -43 12 -8
0 -22 4 -32 9 -9 5 -44 19 -77 32 -33 12 -66 27 -73 32 -7 5 -15 7 -19 4 -3
-4 -11 -3 -17 2 -6 5 -54 31 -106 57 -120 60 -297 176 -375 246 -79 71 -164
157 -182 185 -8 13 -19 20 -24 17 -5 -3 -9 4 -9 15 0 12 -4 21 -9 21 -14 0
-131 182 -173 270 -124 255 -171 464 -172 765 0 189 19 336 61 470 81 256 217
497 378 673 199 217 365 342 620 467 226 111 403 164 600 181 39 4 71 7 72 8
6 5 254 -2 318 -8z"/>
<path d="M10 4695 l0 -3411 2115 0 2115 0 -2 640 -3 641 -1403 0 -1402 0 0
853 0 852 1280 0 1280 0 1 23 c0 12 2 300 2 639 l2 618 -1282 0 -1283 0 0 635
c0 501 3 635 13 636 6 0 502 1 1102 2 l1090 2 0 641 0 641 -1812 0 -1813 0 0
-3412z m3445 2771 l0 -461 -1010 -1 c-555 -1 -1028 -4 -1050 -8 -47 -9 -104
-50 -125 -92 -13 -25 -15 -126 -18 -684 -3 -674 -1 -731 36 -776 24 -28 64
-53 98 -62 16 -4 569 -7 1229 -7 l1200 0 -1 -450 c-1 -247 -2 -457 -3 -465 -1
-13 -142 -15 -1208 -15 -1188 0 -1209 0 -1247 -20 -22 -11 -54 -37 -70 -58
l-31 -39 -3 -876 c-2 -614 0 -890 8 -921 20 -80 64 -121 150 -138 14 -3 616
-6 1338 -6 l1312 0 0 -462 0 -462 -1935 0 c-1420 0 -1935 3 -1936 11 -1 6 -1
414 0 906 0 492 0 1942 1 3221 l0 2325 1633 0 1632 0 0 -460z"/>
</g>
</svg>
